<?xml version="1.0" encoding="UTF-8"?>
<svg id="Layer_1" xmlns="http://www.w3.org/2000/svg" version="1.1" viewBox="0 0 512 512">
  <!-- Generator: Adobe Illustrator 29.0.1, SVG Export Plug-In . SVG Version: 2.1.0 Build 192)  -->
  <defs>
    <style>
      .st0 {
        fill: #f2f2f2;
      }

      .st1 {
        fill: #c1272d;
      }

      .st2 {
        fill: #fbb03b;
      }
    </style>
  </defs>
  <g>
    <path class="st1" d="M256.5,467c-116.62,0-211.5-94.88-211.5-211.5S139.88,44,256.5,44s211.5,94.88,211.5,211.5-94.88,211.5-211.5,211.5Z"/>
    <path class="st2" d="M256.5,71c49.28,0,95.61,19.19,130.46,54.04,34.85,34.85,54.04,81.18,54.04,130.46s-19.19,95.61-54.04,130.46c-34.85,34.85-81.18,54.04-130.46,54.04s-95.61-19.19-130.46-54.04c-34.85-34.85-54.04-81.18-54.04-130.46s19.19-95.61,54.04-130.46c34.85-34.85,81.18-54.04,130.46-54.04M256.5,17C124.78,17,18,123.78,18,255.5s106.78,238.5,238.5,238.5,238.5-106.78,238.5-238.5S388.22,17,256.5,17h0Z"/>
  </g>
  <g>
    <path class="st0" d="M237.53,343.73h-94.45v-182.05h21.33v162.75h73.12v19.3Z"/>
    <path class="st0" d="M392.16,343.73h-29.71l-70.33-83.28c-2.62-3.13-4.23-5.25-4.82-6.35h-.51v89.63h-21.33v-182.05h21.33v85.57h.51c1.18-1.86,2.79-3.94,4.82-6.22l68.05-79.35h26.53l-78.08,87.34,83.54,94.71Z"/>
  </g>
</svg>